<?xml version="1.0" encoding="iso-8859-1"?>
<!-- Uploaded to: SVG Repo, www.svgrepo.com, Generator: SVG Repo Mixer Tools -->
<svg version="1.1" id="Layer_1" xmlns="http://www.w3.org/2000/svg" xmlns:xlink="http://www.w3.org/1999/xlink" 
	 viewBox="0 0 500.8 500.8" xml:space="preserve">
<path style="fill:#E3FCF7;" d="M418.4,450.4V157.6c0-76.8-61.6-139.2-138.4-139.2h-60c-76,0-137.6,62.4-137.6,139.2v292.8H418.4z"/>
<path style="fill:#B7F7F7;" d="M280,18.4h-60c-15.2,0-25.6,2.4-41.6,6.4v425.6h240V157.6C418.4,80.8,356,18.4,280,18.4z"/>
<g>
	<path style="fill:#97E7EF;" d="M418.4,450.4V157.6C418.4,80.8,356,18.4,280,18.4h-60c-15.2,0-28,2.4-41.6,6.4"/>
	<path style="fill:#97E7EF;" d="M341.6,188.8c0,51.2-41.6,92-92,92c-51.2,0-92-41.6-92-92c0-51.2,41.6-92,92-92
		C300.8,96.8,341.6,138.4,341.6,188.8z"/>
</g>
<g>
	<path style="fill:#6CC4D8;" d="M306.4,287.2c0,30.4-25.6,55.2-56,55.2l0,0c-30.4,0-56-24.8-56-55.2v-108c0-30.4,25.6-55.2,56-55.2
		l0,0c30.4,0,56,24.8,56,55.2V287.2z"/>
	<rect x="226.4" y="170.4" style="fill:#6CC4D8;" width="48" height="280"/>
</g>
<path style="fill:#00233F;" d="M370.4,174.4c0,20-16,36-36,36h-176c-20,0-36-16-36-36l0,0c0-20,16-36,36-36h176
	C354.4,138.4,370.4,154.4,370.4,174.4L370.4,174.4z"/>
<path style="fill:#0B6382;" d="M370.4,174.4c0,20-16,36-36,36h-176c-20,0-36-16-36-36l0,0c0-20,16-36,36-36h176
	C354.4,138.4,370.4,154.4,370.4,174.4L370.4,174.4z"/>
<path style="fill:#00233F;" d="M337.6,146.4h-176c-18.4,0-39.2,8.8-39.2,28c0,18.4,13.6,36,39.2,36h176c18.4,0,32.8-15.2,32.8-33.6
	S356.8,146.4,337.6,146.4z"/>
<path style="fill:#0B6382;" d="M341.6,168c0,51.2-41.6,92-92,92c-51.2,0-92-41.6-92-92c0-51.2,41.6-92,92-92
	C300.8,76,341.6,116.8,341.6,168z"/>
<path style="fill:#00233F;" d="M184.8,103.2c36-36,94.4-36,130.4,0s36,94.4,0,130.4"/>
<path style="fill:#13D1BA;" d="M313.6,168c0,35.2-28,63.2-63.2,63.2s-63.2-28-63.2-63.2s28.8-63.2,63.2-63.2
	C284.8,104.8,313.6,132.8,313.6,168z"/>
<path style="fill:#0FAAA6;" d="M249.6,104.8c35.2,0,63.2,28,63.2,63.2s-28,63.2-63.2,63.2"/>
<g style="opacity:0.6;">
	<path style="fill:#13D1BA;" d="M220.8,139.2c16-16,41.6-16,57.6,0s16,41.6,0,57.6s-41.6,16-57.6,0S204.8,155.2,220.8,139.2z"/>
	<path style="fill:#0FAAA6;" d="M220.8,196.8c-16-16-16-41.6,0-57.6s41.6-16,57.6,0"/>
</g>
<g style="opacity:0.6;">
	<path style="fill:#13D1BA;" d="M220.8,196.8c-16-16-16-41.6,0-57.6s41.6-16,57.6,0s16,41.6,0,57.6S236.8,212.8,220.8,196.8z"/>
	<path style="fill:#0FAAA6;" d="M278.4,196.8c-16,16-41.6,16-57.6,0s-16-41.6,0-57.6"/>
</g>
<g>
	<path style="fill:#F0FFFD;" d="M246.4,151.2c0,7.2-5.6,13.6-13.6,13.6c-7.2,0-13.6-5.6-13.6-13.6s7.2-12.8,14.4-12.8
		S246.4,144,246.4,151.2z"/>
	<path style="fill:#F0FFFD;" d="M263.2,176.8c0,0.8-0.8,1.6-1.6,1.6c-0.8,0-1.6-0.8-1.6-1.6s0.8-1.6,1.6-1.6
		C262.4,174.4,263.2,176,263.2,176.8z"/>
	<path style="fill:#F0FFFD;" d="M277.6,189.6c0,3.2-2.4,5.6-5.6,5.6s-5.6-2.4-5.6-5.6c0-3.2,2.4-5.6,5.6-5.6
		C275.2,184,277.6,186.4,277.6,189.6z"/>
</g>
<g>
	<path style="fill:#F2F4DC;" d="M240.8,92c0,1.6-0.8,2.4-2.4,2.4c-1.6,0-2.4-0.8-2.4-2.4s0.8-2.4,2.4-2.4
		C240,89.6,240.8,91.2,240.8,92z"/>
	<path style="fill:#F2F4DC;" d="M252,92c0,1.6-0.8,2.4-2.4,2.4s-2.4-0.8-2.4-2.4s0.8-2.4,2.4-2.4C251.2,89.6,252,91.2,252,92z"/>
	<path style="fill:#F2F4DC;" d="M264,92c0,1.6-0.8,2.4-2.4,2.4s-2.4-0.8-2.4-2.4s0.8-2.4,2.4-2.4C262.4,89.6,264,91.2,264,92z"/>
	<path style="fill:#F2F4DC;" d="M240.8,249.6c0,1.6-0.8,2.4-2.4,2.4c-1.6,0-2.4-0.8-2.4-2.4s0.8-2.4,2.4-2.4
		C240,247.2,240.8,248.8,240.8,249.6z"/>
	<circle style="fill:#F2F4DC;" cx="249.6" cy="249.6" r="2.4"/>
	<circle style="fill:#F2F4DC;" cx="261.6" cy="249.6" r="2.4"/>
</g>
<g>
	<circle style="fill:#DB3C0B;" cx="249.6" cy="51.2" r="8.8"/>
	<path style="fill:#DB3C0B;" d="M495.2,458.4c0,14.4,12.8,24-1.6,24H7.2c-14.4,0-1.6-9.6-1.6-24l0,0c0-14.4,11.2-24,25.6-24h438.4
		C483.2,434.4,495.2,444,495.2,458.4L495.2,458.4z"/>
</g>
<path id="SVGCleanerId_0" style="fill:#00233F;" d="M330.4,289.6c-30.4-31.2-61.6-24-80-16c-18.4-8-49.6-15.2-80,16
	C124.8,336.8,96.8,432,0,378.4c0,0,48,50.4,104.8,17.6c56-32.8,89.6-96,116.8-96c18.4,0,24,4.8,28.8,4c4.8,0.8,10.4-4,28.8-4
	c27.2,0,60.8,63.2,116.8,96s104.8-17.6,104.8-17.6C404,431.2,376,336.8,330.4,289.6z"/>
<g>
	<path id="SVGCleanerId_0_1_" style="fill:#00233F;" d="M330.4,289.6c-30.4-31.2-61.6-24-80-16c-18.4-8-49.6-15.2-80,16
		C124.8,336.8,96.8,432,0,378.4c0,0,48,50.4,104.8,17.6c56-32.8,89.6-96,116.8-96c18.4,0,24,4.8,28.8,4c4.8,0.8,10.4-4,28.8-4
		c27.2,0,60.8,63.2,116.8,96s104.8-17.6,104.8-17.6C404,431.2,376,336.8,330.4,289.6z"/>
</g>
<path style="fill:#0B7B99;" d="M49.6,404.8c59.2,2.4,84-66.4,120.8-104c30.4-31.2,61.6-24,80-16c18.4-8,49.6-15.2,80,16
	c36.8,38.4,62.4,107.2,120.8,104c28.8-6.4,48.8-26.4,48.8-26.4c-96,52.8-124-41.6-169.6-88.8c-30.4-31.2-61.6-24-80-16
	c-18.4-8-49.6-15.2-80,16C124.8,336.8,96.8,432,0,378.4C0.8,377.6,20.8,398.4,49.6,404.8z"/>
<path style="fill:#AF2804;" d="M494.4,458.4H6.4c0,0,0-0.8,0,0c0,14.4-12.8,24,1.6,24h486.4C507.2,482.4,495.2,472.8,494.4,458.4
	C495.2,457.6,494.4,458.4,494.4,458.4z"/>
<g>
	<path style="fill:#E3FCF7;" d="M138.4,454.4c0,2.4-1.6,4-4,4h-32c-2.4,0-4-1.6-4-4l0,0c0-2.4,1.6-4,4-4h32
		C136.8,450.4,138.4,452,138.4,454.4L138.4,454.4z"/>
	<circle style="fill:#E3FCF7;" cx="370.4" cy="453.6" r="6.4"/>
	<circle style="fill:#E3FCF7;" cx="395.2" cy="453.6" r="6.4"/>
</g>
</svg>